# xmcd
#
# Track frame offsets:
# 150
# 14938
# 38482
# 65585
# 75539
# 100291
# 124054
# 133275
# 157332
# 176886
# 197278
#
# Disc length: 3105 seconds
#
#
# Revision: 0
# Processed by: cddbd v1.5.1PL0 Copyright (c) Steve Scherf et al.
# Submitted via: FreeRIP 2.91 
#
DISCID=9c0c1f0b
DTITLE=Swarm Of The Lotus - When White Becomes Black
DYEAR=2004
DGENRE=Metal
TTITLE0=Cherry Chocolate Salamander
TTITLE1=Committed To Ash
TTITLE2=Strength Of Inner Eyes
TTITLE3=Volatile
TTITLE4=From Embers
TTITLE5=Seeing Truth
TTITLE6=Serpent Within
TTITLE7=An Ocean Of Fire
TTITLE8=Episode Infinity
TTITLE9=Burn Autumn Burn
TTITLE10=Stained Glass Oubliette
EXTD=
EXTT0=
EXTT1=
EXTT2=
EXTT3=
EXTT4=
EXTT5=
EXTT6=
EXTT7=
EXTT8=
EXTT9=
EXTT10=
PLAYORDER=
